<svg width="105" height="49" viewBox="0 0 105 49" fill="none" xmlns="http://www.w3.org/2000/svg">
<rect width="105" height="49" fill="#E5E5E5"/>
<g id="Frame 3">
<rect width="105" height="49" fill="white"/>
<g id="20942180181556280998 14" clip-path="url(#clip0)">
<g id="Icons">
<g id="Rounded">
<g id="Navigation">
<g id="Round / Navigation / chevron right">
<g id="Group">
<path id="&#240;&#159;&#148;&#185; Icon Color" fill-rule="evenodd" clip-rule="evenodd" d="M14.4971 21.71C13.8286 22.1 13.8286 22.73 14.4971 23.12L21.1486 27L14.4971 30.88C13.8286 31.27 13.8286 31.9 14.4971 32.29C15.1657 32.68 16.2457 32.68 16.9143 32.29L24.7829 27.7C25.4514 27.31 25.4514 26.68 24.7829 26.29L16.9143 21.7C16.2629 21.32 15.1657 21.32 14.4971 21.71Z" fill="#1D1D1D"/>
</g>
</g>
</g>
</g>
</g>
</g>
<g id="20942180181556280998 17" clip-path="url(#clip1)">
<g id="Icons_2">
<g id="Rounded_2">
<g id="Navigation_2">
<g id="Round / Navigation / chevron right_2">
<g id="Group_2">
<path id="&#240;&#159;&#148;&#185; Icon Color_2" fill-rule="evenodd" clip-rule="evenodd" d="M44.9114 14.6567C43.6857 15.5667 43.6857 17.0367 44.9114 17.9467L57.1057 27L44.9114 36.0533C43.6857 36.9633 43.6857 38.4333 44.9114 39.3433C46.1371 40.2533 48.1171 40.2533 49.3429 39.3433L63.7686 28.6333C64.9943 27.7233 64.9943 26.2533 63.7686 25.3433L49.3429 14.6333C48.1486 13.7467 46.1371 13.7467 44.9114 14.6567Z" fill="#1D1D1D"/>
</g>
</g>
</g>
</g>
</g>
</g>
<g id="20942180181556280998 16" clip-path="url(#clip2)">
<g id="Icons_3">
<g id="Rounded_3">
<g id="Navigation_3">
<g id="Round / Navigation / chevron right_3">
<g id="Group_3">
<path id="&#240;&#159;&#148;&#185; Icon Color_3" fill-rule="evenodd" clip-rule="evenodd" d="M67.2843 12.8933C65.5571 13.9333 65.5571 15.6133 67.2843 16.6533L84.4671 27L67.2843 37.3467C65.5571 38.3867 65.5571 40.0667 67.2843 41.1067C69.0114 42.1467 71.8014 42.1467 73.5286 41.1067L93.8557 28.8667C95.5829 27.8267 95.5829 26.1467 93.8557 25.1067L73.5286 12.8667C71.8457 11.8533 69.0114 11.8533 67.2843 12.8933Z" fill="#1D1D1D"/>
</g>
</g>
</g>
</g>
</g>
</g>
<g id="20942180181556280998 15" clip-path="url(#clip3)">
<g id="Icons_4">
<g id="Rounded_4">
<g id="Navigation_4">
<g id="Round / Navigation / chevron right_4">
<g id="Group_4">
<path id="&#240;&#159;&#148;&#185; Icon Color_4" fill-rule="evenodd" clip-rule="evenodd" d="M26.7457 17.2425C25.7429 17.925 25.7429 19.0275 26.7457 19.71L36.7229 26.5L26.7457 33.29C25.7429 33.9725 25.7429 35.075 26.7457 35.7575C27.7486 36.44 29.3686 36.44 30.3714 35.7575L42.1743 27.725C43.1771 27.0425 43.1771 25.94 42.1743 25.2575L30.3714 17.225C29.3943 16.56 27.7486 16.56 26.7457 17.2425Z" fill="#1D1D1D"/>
</g>
</g>
</g>
</g>
</g>
</g>
</g>
<defs>
<clipPath id="clip0">
<rect width="12" height="12" fill="white" transform="translate(14 21)"/>
</clipPath>
<clipPath id="clip1">
<rect width="22" height="28" fill="white" transform="translate(44 13)"/>
</clipPath>
<clipPath id="clip2">
<rect width="31" height="32" fill="white" transform="translate(66 11)"/>
</clipPath>
<clipPath id="clip3">
<rect width="18" height="21" fill="white" transform="translate(26 16)"/>
</clipPath>
</defs>
</svg>
