<svg width="40" height="30" viewBox="0 0 40 30" fill="none" xmlns="http://www.w3.org/2000/svg">
<rect width="40" height="30" fill="#E5E5E5"/>
<g id="left">
<g id="circle">
<path id="Vector" d="M20 5C14.4772 5 10 9.47715 10 15C10 20.5228 14.4772 25 20 25C25.5228 25 30 20.5228 30 15C30 9.47715 25.5228 5 20 5Z" stroke="black" stroke-width="2" stroke-linecap="round" stroke-linejoin="round"/>
</g>
<g id="arr-left" clip-path="url(#clip0)">
<g id="Icons">
<g id="Rounded">
<g id="Navigation">
<g id="Round / Navigation / chevron right">
<g id="Group">
<path id="&#240;&#159;&#148;&#185; Icon Color" fill-rule="evenodd" clip-rule="evenodd" d="M22.71 20.29C23.1 19.9 23.1 19.27 22.71 18.88L18.83 15L22.71 11.12C23.1 10.73 23.1 10.1 22.71 9.71C22.32 9.32 21.69 9.32 21.3 9.71L16.71 14.3C16.32 14.69 16.32 15.32 16.71 15.71L21.3 20.3C21.68 20.68 22.32 20.68 22.71 20.29Z" fill="#D74B5C"/>
</g>
</g>
</g>
</g>
</g>
</g>
</g>
<defs>
<clipPath id="clip0">
<rect width="7" height="12" fill="white" transform="translate(23 21) rotate(-180)"/>
</clipPath>
</defs>
</svg>
