<svg width="45" height="30" viewBox="0 0 45 30" fill="none" xmlns="http://www.w3.org/2000/svg">
<rect width="45" height="30" fill="#E5E5E5"/>
<g id="right">
<rect width="45" height="30" fill="white"/>
<g id="circle" filter="url(#filter0_d)">
<path id="Vector" d="M22 25C27.5228 25 32 20.5228 32 15C32 9.47715 27.5228 5 22 5C16.4772 5 12 9.47715 12 15C12 20.5228 16.4772 25 22 25Z" stroke="black" stroke-width="2" stroke-linecap="round" stroke-linejoin="round"/>
</g>
<g id="arr-right" clip-path="url(#clip0)" filter="url(#filter1_d)">
<g id="Icons">
<g id="Rounded">
<g id="Navigation">
<g id="Round / Navigation / chevron right">
<g id="Group">
<path id="&#240;&#159;&#148;&#185; Icon Color" fill-rule="evenodd" clip-rule="evenodd" d="M19.29 9.71C18.9 10.1 18.9 10.73 19.29 11.12L23.17 15L19.29 18.88C18.9 19.27 18.9 19.9 19.29 20.29C19.68 20.68 20.31 20.68 20.7 20.29L25.29 15.7C25.68 15.31 25.68 14.68 25.29 14.29L20.7 9.7C20.32 9.32 19.68 9.32 19.29 9.71Z" fill="#1D1D1D"/>
</g>
</g>
</g>
</g>
</g>
</g>
</g>
<defs>
<filter id="filter0_d" x="10" y="3" width="26" height="26" filterUnits="userSpaceOnUse" color-interpolation-filters="sRGB">
<feFlood flood-opacity="0" result="BackgroundImageFix"/>
<feColorMatrix in="SourceAlpha" type="matrix" values="0 0 0 0 0 0 0 0 0 0 0 0 0 0 0 0 0 0 127 0"/>
<feOffset dx="1" dy="1"/>
<feGaussianBlur stdDeviation="0.5"/>
<feColorMatrix type="matrix" values="0 0 0 0 0 0 0 0 0 0 0 0 0 0 0 0 0 0 0.14 0"/>
<feBlend mode="normal" in2="BackgroundImageFix" result="effect1_dropShadow"/>
<feBlend mode="normal" in="SourceGraphic" in2="effect1_dropShadow" result="shape"/>
</filter>
<filter id="filter1_d" x="17" y="7" width="9" height="14" filterUnits="userSpaceOnUse" color-interpolation-filters="sRGB">
<feFlood flood-opacity="0" result="BackgroundImageFix"/>
<feColorMatrix in="SourceAlpha" type="matrix" values="0 0 0 0 0 0 0 0 0 0 0 0 0 0 0 0 0 0 127 0"/>
<feOffset dx="-1" dy="-1"/>
<feGaussianBlur stdDeviation="0.5"/>
<feColorMatrix type="matrix" values="0 0 0 0 0 0 0 0 0 0 0 0 0 0 0 0 0 0 0.14 0"/>
<feBlend mode="normal" in2="BackgroundImageFix" result="effect1_dropShadow"/>
<feBlend mode="normal" in="SourceGraphic" in2="effect1_dropShadow" result="shape"/>
</filter>
<clipPath id="clip0">
<rect width="7" height="12" fill="white" transform="translate(19 9)"/>
</clipPath>
</defs>
</svg>
