<svg width="40" height="30" viewBox="0 0 40 30" fill="none" xmlns="http://www.w3.org/2000/svg">
<rect width="40" height="30" fill="#E5E5E5"/>
<g id="right2">
<g id="circle">
<path id="Vector" d="M20 5C14.4772 5 10 9.47715 10 15C10 20.5228 14.4772 25 20 25C25.5228 25 30 20.5228 30 15C30 9.47715 25.5228 5 20 5Z" stroke="black" stroke-width="2" stroke-linecap="round" stroke-linejoin="round"/>
</g>
<g id="arr-left" clip-path="url(#clip0)">
<g id="Icons">
<g id="Rounded">
<g id="Navigation">
<g id="Round / Navigation / chevron right">
<g id="Group">
<path id="&#240;&#159;&#148;&#185; Icon Color" fill-rule="evenodd" clip-rule="evenodd" d="M16.29 9.71C15.9 10.1 15.9 10.73 16.29 11.12L20.17 15L16.29 18.88C15.9 19.27 15.9 19.9 16.29 20.29C16.68 20.68 17.31 20.68 17.7 20.29L22.29 15.7C22.68 15.31 22.68 14.68 22.29 14.29L17.7 9.7C17.32 9.32 16.68 9.32 16.29 9.71Z" fill="#D74B5C"/>
</g>
</g>
</g>
</g>
</g>
</g>
</g>
<defs>
<clipPath id="clip0">
<rect width="7" height="12" fill="white" transform="translate(16 9)"/>
</clipPath>
</defs>
</svg>
